<?xml version="1.0" encoding="utf-8"?>
<!-- Generator: Adobe Illustrator 27.0.0, SVG Export Plug-In . SVG Version: 6.00 Build 0)  -->
<svg version="1.1" id="Layer_1" xmlns="http://www.w3.org/2000/svg" xmlns:xlink="http://www.w3.org/1999/xlink" x="0px" y="0px"
	 viewBox="0 0 240.1 156.7" style="enable-background:new 0 0 240.1 156.7;" xml:space="preserve">
<style type="text/css">
	.st0{fill:#FFBC15;}
	.st1{fill:#009132;}
	.st2{fill:#FFFFFF;}
</style>
<g>
	<path class="st0" d="M5.6,70.5v-59h44.6v14.9H24.5v9.1H45v14.3H24.5v20.8H5.6z"/>
	<path class="st0" d="M54.6,70.5V27h16v7.9c1.1-3.2,2.8-5.5,4.9-6.9c2.2-1.5,5-2.2,8.6-2.2h1.6v17.3C85,43,84.4,43,83.8,43
		c-0.6,0-1.1-0.1-1.7-0.1c-3.5,0-6.1,0.8-7.7,2.4c-1.6,1.6-2.5,4-2.5,7.4v17.9H54.6z"/>
	<path class="st0" d="M119.5,57.6h16.6c-1.2,4.8-3.8,8.4-7.9,10.8s-9.5,3.7-16.1,3.7c-7.5,0-13.4-2.1-17.8-6.2
		c-4.4-4.2-6.6-9.7-6.6-16.8c0-7.3,2.2-13.1,6.7-17.3c4.5-4.2,10.6-6.4,18.3-6.4c7.7,0,13.8,2.3,18.2,6.9c4.4,4.6,6.6,11,6.6,19.2v1
		l-32.5,0c0.1,2.8,0.8,4.9,2.2,6.4c1.4,1.5,3.3,2.3,5.8,2.3c1.7,0,3.1-0.3,4.2-0.9C118.3,59.7,119.1,58.8,119.5,57.6z M105,43.9
		h15.4c-0.2-2.7-0.9-4.7-2.2-6.1c-1.3-1.3-3.2-2-5.7-2c-2.3,0-4.1,0.7-5.4,2.1C105.8,39.3,105.1,41.3,105,43.9z"/>
	<path class="st0" d="M140.4,56.8h16.8c0,1.8,0.5,3.2,1.4,4.1c0.9,0.9,2.4,1.4,4.3,1.4c1.8,0,3.2-0.3,4.2-0.9s1.5-1.5,1.5-2.7
		c0-1.9-2.2-3.4-6.5-4.3c-0.4-0.1-0.7-0.1-0.9-0.2c-8.1-1.7-13.5-3.6-16-5.6s-3.7-4.9-3.7-8.8c0-4.7,1.8-8.2,5.5-10.7
		c3.6-2.4,9-3.7,16-3.7c6.5,0,11.5,1.1,15.1,3.4c3.6,2.3,5.6,5.7,6.2,10.3h-15.6c-0.1-1.3-0.7-2.4-1.7-3.1c-1-0.8-2.3-1.2-3.8-1.2
		c-1.5,0-2.7,0.3-3.5,0.8s-1.2,1.3-1.2,2.3c0,1.7,2,3,5.9,3.8c1,0.2,1.8,0.4,2.4,0.5c7.9,1.8,13.1,3.7,15.4,5.8s3.6,5,3.6,9
		c0,5-1.9,8.8-5.8,11.3c-3.9,2.5-9.6,3.8-17.3,3.8c-7.1,0-12.4-1.3-16.1-3.8C142.8,65.8,140.8,61.9,140.4,56.8z"/>
	<path class="st0" d="M190.7,70.5v-59H208v20.1c1.8-2,3.8-3.4,6-4.4c2.2-1,4.7-1.4,7.4-1.4c2.8,0,5.2,0.4,7.3,1.3
		c2.1,0.9,3.9,2.2,5.4,3.9c1.3,1.6,2.2,3.5,2.8,5.9c0.5,2.3,0.8,6,0.8,11v22.6h-17.3V48c0-3.3-0.4-5.6-1.3-6.8
		c-0.9-1.2-2.4-1.9-4.6-1.9c-2.2,0-3.8,0.7-4.9,2.2c-1.1,1.4-1.6,3.6-1.6,6.6v22.5H190.7z"/>
	<path class="st2" d="M3.6,118.9H22c0.5,2.1,1.4,3.7,2.8,4.6c1.3,0.9,3.3,1.4,6,1.4c2.2,0,4-0.4,5.2-1.1c1.3-0.8,1.9-1.8,1.9-3.1
		c0-2.1-2.7-3.9-8-5.2c-1.1-0.3-1.9-0.5-2.4-0.6c-4.4-1.1-7.8-2.1-10.4-3.1c-2.6-0.9-4.5-1.8-5.6-2.6c-2.3-1.6-4-3.6-5.1-5.9
		c-1.1-2.3-1.7-4.9-1.7-7.8c0-5.9,2.2-10.4,6.6-13.8s10.5-5,18.2-5c7.6,0,13.6,1.6,17.9,4.8c4.4,3.2,6.8,7.8,7.4,13.7h-18
		c-0.3-1.7-1.1-3-2.3-3.9c-1.2-0.9-3-1.3-5.3-1.3c-2,0-3.5,0.3-4.5,1c-1,0.7-1.5,1.7-1.5,3c0,2,2.6,3.6,7.8,4.9
		c0.5,0.1,0.8,0.2,1,0.3c0.7,0.2,1.9,0.5,3.4,0.8c6.9,1.7,11.4,3.3,13.5,4.7c2.6,1.7,4.5,3.7,5.7,5.9c1.2,2.2,1.8,4.8,1.8,7.9
		c0,6.5-2.3,11.5-6.8,15c-4.6,3.5-11.1,5.2-19.6,5.2c-7.8,0-14-1.8-18.6-5.2C6.7,130.2,4.2,125.3,3.6,118.9z"/>
	<path class="st2" d="M90.9,137.3l-1.1-4.2c-2.2,2-4.6,3.4-7.2,4.3c-2.6,0.9-5.5,1.4-8.7,1.4c-4.9,0-8.7-1.2-11.4-3.6
		c-2.7-2.4-4-5.8-4-10.2c0-4.3,1.3-7.5,4-9.5c2.6-2.1,7.6-3.6,15-4.5c0.9-0.1,2.2-0.3,3.8-0.4c5.5-0.6,8.2-2,8.2-4.2
		c0-1.3-0.5-2.2-1.5-2.7c-1-0.6-2.6-0.9-4.7-0.9c-1.8,0-3.2,0.4-4.1,1.1c-1,0.7-1.5,1.8-1.7,3.3H60.5c0.1-4.9,2.1-8.6,6-11.1
		c3.9-2.5,9.7-3.7,17.3-3.7c3.6,0,6.9,0.3,9.9,1c3,0.7,5.4,1.6,7.1,2.7c2.1,1.4,3.5,3,4.3,4.7c0.8,1.8,1.2,4.3,1.2,7.5v24.3
		c0,0.8,0.2,1.5,0.5,2.1c0.3,0.6,0.8,1.1,1.4,1.5v1.2H90.9z M89.3,117.9c-1.7,0.6-3.9,1.3-6.6,2c-4.3,1.1-6.5,2.7-6.5,4.6
		c0,1.2,0.4,2.2,1.3,2.9c0.9,0.7,2.1,1,3.6,1c2.9,0,5-0.7,6.3-2c1.3-1.3,2-3.5,2-6.4c0-0.6,0-1.1,0-1.4
		C89.4,118.4,89.4,118.1,89.3,117.9z"/>
	<path class="st2" d="M112.7,137.3v-59h17.5v59H112.7z"/>
	<path class="st2" d="M167,137.3l-1.1-4.2c-2.2,2-4.6,3.4-7.2,4.3c-2.6,0.9-5.5,1.4-8.7,1.4c-4.9,0-8.7-1.2-11.4-3.6
		c-2.7-2.4-4-5.8-4-10.2c0-4.3,1.3-7.5,4-9.5c2.6-2.1,7.6-3.6,15-4.5c0.9-0.1,2.2-0.3,3.8-0.4c5.5-0.6,8.2-2,8.2-4.2
		c0-1.3-0.5-2.2-1.5-2.7c-1-0.6-2.6-0.9-4.7-0.9c-1.8,0-3.2,0.4-4.1,1.1c-1,0.7-1.5,1.8-1.7,3.3h-16.9c0.1-4.9,2.1-8.6,6-11.1
		s9.7-3.7,17.3-3.7c3.6,0,6.9,0.3,9.9,1s5.4,1.6,7.1,2.7c2.1,1.4,3.5,3,4.3,4.7c0.8,1.8,1.2,4.3,1.2,7.5v24.3c0,0.8,0.2,1.5,0.5,2.1
		c0.3,0.6,0.8,1.1,1.4,1.5v1.2H167z M165.4,117.9c-1.7,0.6-3.9,1.3-6.6,2c-4.3,1.1-6.5,2.7-6.5,4.6c0,1.2,0.4,2.2,1.3,2.9
		c0.9,0.7,2.1,1,3.6,1c2.9,0,5-0.7,6.3-2c1.3-1.3,2-3.5,2-6.4c0-0.6,0-1.1,0-1.4C165.5,118.4,165.4,118.1,165.4,117.9z"/>
	<path class="st2" d="M234.6,137.3h-15.3V132c-1.9,2.3-4,4.1-6.4,5.2c-2.4,1.1-5,1.7-8,1.7c-5.6,0-10.1-2.1-13.5-6.4
		c-3.4-4.2-5.2-9.8-5.2-16.8c0-6.9,1.7-12.5,5.2-16.8c3.5-4.3,7.9-6.5,13.4-6.5c2.6,0,5,0.5,7.1,1.5s4.1,2.5,5.8,4.5V78.3h16.9
		V137.3z M210.7,126c2.2,0,4-0.9,5.2-2.7c1.3-1.8,1.9-4.2,1.9-7.4c0-3.4-0.6-6-1.8-7.6c-1.2-1.7-3-2.5-5.4-2.5
		c-2.4,0-4.2,0.8-5.3,2.5c-1.1,1.6-1.7,4.2-1.7,7.6c0,3.2,0.6,5.7,1.9,7.4C206.8,125.2,208.5,126,210.7,126z"/>
</g>
</svg>
