<svg width="373" height="105" viewBox="0 0 373 105" fill="none" xmlns="http://www.w3.org/2000/svg">
<g clip-path="url(#clip0_2_21)">
<path d="M51.1 64.8402C51.1 68.1735 49.9667 71.4735 47.7 74.7402C45.5 77.9402 42.3667 80.5402 38.3 82.5402C34.3 84.6069 29.7333 85.6402 24.6 85.6402C20.2667 85.6402 16.8333 85.2735 14.3 84.5402C11.7667 83.8735 10.5 82.9069 10.5 81.6402C10.5 80.9735 10.9667 79.8735 11.9 78.3402C12.9 76.7402 13.6667 75.9402 14.2 75.9402C15 75.9402 15.4 76.1069 15.4 76.4402C15.4 76.6402 15.2667 76.8735 15 77.1402C14.8 77.4069 14.7 77.6735 14.7 77.9402C14.7 78.1402 15.1 78.4402 15.9 78.8402C16.7667 79.2402 18.0667 79.6069 19.8 79.9402C21.5333 80.2735 23.6333 80.4402 26.1 80.4402C30.0333 80.4402 33.4667 79.6735 36.4 78.1402C39.4 76.6069 41.7 74.6735 43.3 72.3402C44.9 70.0069 45.7 67.7402 45.7 65.5402C45.7 62.6735 44.3 60.2069 41.5 58.1402C38.7667 56.0735 34.3333 54.1069 28.2 52.2402C22.2667 50.3069 17.6667 48.7069 14.4 47.4402C11.2 46.1069 8.6 44.5069 6.6 42.6402C4.6 40.7069 3.6 38.3735 3.6 35.6402C3.6 31.9735 5.66667 28.3735 9.8 24.8402C13.9333 21.2402 19.0333 18.3402 25.1 16.1402C31.1667 13.8735 36.8 12.7402 42 12.7402C44.6667 12.7402 46.1 13.2735 46.3 14.3402C46.5 15.4069 46.6 16.6069 46.6 17.9402C46.6 18.9402 46.2333 19.4402 45.5 19.4402C45.1667 19.4402 44.7667 19.3402 44.3 19.1402C43.9 18.8735 43.5333 18.6735 43.2 18.5402C42.8 18.4069 42.3333 18.2735 41.8 18.1402C41.2667 18.0069 40.5 17.9402 39.5 17.9402C36.0333 17.9402 31.8667 18.8402 27 20.6402C22.1333 22.4402 17.9 24.6735 14.3 27.3402C10.7667 30.0069 9 32.5735 9 35.0402C9 37.0402 9.8 38.7735 11.4 40.2402C13.0667 41.7069 15.2667 42.9735 18 44.0402C20.7333 45.0402 24.6 46.3069 29.6 47.8402C36.9333 49.9735 42.3333 52.3735 45.8 55.0402C49.3333 57.7069 51.1 60.9735 51.1 64.8402ZM111.88 18.5402C111.88 19.3402 111.314 20.0402 110.18 20.6402C108.38 21.6402 105.547 22.7069 101.68 23.8402C97.8805 24.9735 94.7471 25.7735 92.2805 26.2402C88.4138 26.9735 84.5138 27.5735 80.5805 28.0402C76.7138 28.4402 74.2138 28.6735 73.0805 28.7402C73.1471 32.6069 73.2471 36.6069 73.3805 40.7402C73.5138 44.8069 73.6138 47.6069 73.6805 49.1402C76.2805 48.8069 80.1805 48.1735 85.3805 47.2402L89.1805 46.6402C93.3805 45.9069 96.6138 44.5735 98.8805 42.6402C100.08 41.7069 100.947 41.2402 101.48 41.2402C101.947 41.2402 102.314 41.5069 102.58 42.0402C102.914 42.5069 103.08 43.0069 103.08 43.5402C103.08 44.7402 101.714 46.0735 98.9805 47.5402C96.3138 48.9402 93.3471 49.9735 90.0805 50.6402C87.3471 51.2402 84.2805 51.8069 80.8805 52.3402C77.4805 52.8735 75.2471 53.2069 74.1805 53.3402C74.5805 64.7402 75.7471 73.2069 77.6805 78.7402C79.6138 79.4069 81.5138 79.9069 83.3805 80.2402C85.2471 80.5069 87.6471 80.6402 90.5805 80.6402C93.5138 80.6402 96.3138 80.2735 98.9805 79.5402C101.647 78.7402 103.78 77.7735 105.38 76.6402C107.047 75.5069 107.88 74.4402 107.88 73.4402C107.88 72.9069 107.78 72.4069 107.58 71.9402C107.38 71.4069 107.114 70.8735 106.78 70.3402C106.647 70.1402 106.414 69.8402 106.08 69.4402C105.814 68.9735 105.68 68.6069 105.68 68.3402C105.68 67.6735 106.414 67.3402 107.88 67.3402C108.947 67.3402 109.847 67.8069 110.58 68.7402C111.38 69.6069 111.78 70.5735 111.78 71.6402C111.78 73.7735 110.814 75.8735 108.88 77.9402C107.014 80.0069 104.414 81.6735 101.08 82.9402C97.8138 84.2735 94.1805 84.9402 90.1805 84.9402C86.1138 84.9402 82.7805 84.7069 80.1805 84.2402C77.5805 83.8402 75.6138 83.0069 74.2805 81.7402C72.6805 79.9402 71.5471 76.8069 70.8805 72.3402C70.2805 67.8735 69.7471 61.9069 69.2805 54.4402C68.0138 54.7735 66.5805 55.0735 64.9805 55.3402C63.4471 55.5402 62.2805 55.6402 61.4805 55.6402C60.6805 55.6402 60.0138 55.4069 59.4805 54.9402C59.0138 54.4069 58.7805 53.7735 58.7805 53.0402C58.7805 52.5735 58.8471 52.1735 58.9805 51.8402C59.1805 51.5069 59.4471 51.3069 59.7805 51.2402C61.9805 50.9735 63.5805 50.8069 64.5805 50.7402L68.8805 50.2402C68.6138 41.6402 68.3471 34.6402 68.0805 29.2402C67.0805 29.2402 66.2805 29.2735 65.6805 29.3402L61.0805 29.4402C60.4805 29.4402 60.0138 29.2735 59.6805 28.9402C59.3471 28.6069 59.1805 28.2402 59.1805 27.8402C59.1805 26.2402 60.2471 25.1735 62.3805 24.6402C63.1805 24.5069 64.1805 24.3735 65.3805 24.2402C66.6471 24.0402 67.4805 23.9402 67.8805 23.9402C69.1471 22.5402 70.5471 21.8402 72.0805 21.8402C72.3471 21.8402 72.5471 22.0735 72.6805 22.5402C72.8805 22.9402 72.9805 23.2402 72.9805 23.4402C77.3805 23.2402 82.6138 22.7402 88.6805 21.9402C92.6805 21.4069 98.8471 20.1402 107.18 18.1402L110.88 17.3402C111.547 17.3402 111.88 17.7402 111.88 18.5402ZM177.56 74.9402C177.56 75.7402 177.227 76.7069 176.56 77.8402C175.893 78.9735 175.193 79.5402 174.46 79.5402C173.793 79.5402 173.16 79.4402 172.56 79.2402C171.96 78.9735 171.06 78.5069 169.86 77.8402C165.66 75.3735 160.16 72.9735 153.36 70.6402C150.36 69.6402 146.793 68.6069 142.66 67.5402C138.593 66.4069 135.393 65.5735 133.06 65.0402L133.76 77.9402C133.827 79.7402 134.06 81.2402 134.46 82.4402C134.86 83.7069 135.06 84.5069 135.06 84.8402C135.06 85.5735 134.693 86.1735 133.96 86.6402C133.227 87.1735 132.46 87.4402 131.66 87.4402C130.66 87.4402 130.027 86.7402 129.76 85.3402C129.76 85.2069 129.66 84.6069 129.46 83.5402C129.327 82.4735 129.26 80.9735 129.26 79.0402C129.26 77.7735 129.127 75.0735 128.86 70.9402C128.793 69.5402 128.727 68.2069 128.66 66.9402C128.593 65.6069 128.56 64.4402 128.56 63.4402C128.36 63.2402 128.093 63.0069 127.76 62.7402C127.493 62.4735 127.26 62.1069 127.06 61.6402C126.86 61.0402 126.693 60.4069 126.56 59.7402C126.427 59.0735 126.36 58.5735 126.36 58.2402C126.36 57.7735 126.493 57.4069 126.76 57.1402C127.027 56.8735 127.427 56.5735 127.96 56.2402C127.56 39.5735 127.36 30.0402 127.36 27.6402C127.36 25.5069 127.393 23.5402 127.46 21.7402C127.527 19.9402 127.56 18.7402 127.56 18.1402C127.16 18.2069 125.96 18.3735 123.96 18.6402C121.96 18.9069 120.36 19.1735 119.16 19.4402C114.893 20.4402 111.66 21.4069 109.46 22.3402C107.193 23.2069 105.027 24.2069 102.96 25.3402C102.36 25.7402 101.793 26.0735 101.26 26.3402C100.66 26.5402 100.093 26.6402 99.5602 26.6402C99.0268 26.6402 98.5602 26.4069 98.1602 25.9402C97.7602 25.4069 97.5602 24.7735 97.5602 24.0402C97.5602 22.7735 99.6935 21.3069 103.96 19.6402C108.227 17.9735 112.86 16.6069 117.86 15.5402C120.66 14.9402 124.227 14.4402 128.56 14.0402C132.893 13.5735 136.927 13.3402 140.66 13.3402C147.06 13.3402 152.493 14.0402 156.96 15.4402C161.493 16.8402 164.893 18.8069 167.16 21.3402C169.493 23.8735 170.66 26.7735 170.66 30.0402C170.66 34.2402 169.46 37.8402 167.06 40.8402C164.66 43.8402 161.46 46.4402 157.46 48.6402C153.527 50.8402 148.16 53.3402 141.36 56.1402C139.627 56.9402 137.893 57.6735 136.16 58.3402C134.493 59.0069 133.36 59.4735 132.76 59.7402C132.76 60.1402 132.793 60.4402 132.86 60.6402C140.06 62.2402 147.16 64.0735 154.16 66.1402L156.26 66.7402C163.527 68.9402 168.893 70.6735 172.36 71.9402C175.827 73.1402 177.56 74.1402 177.56 74.9402ZM165.66 30.0402C165.66 27.8402 164.693 25.8069 162.76 23.9402C160.827 22.0735 157.893 20.5735 153.96 19.4402C150.093 18.2402 145.393 17.6402 139.86 17.6402C135.727 17.6402 133.127 17.7069 132.06 17.8402C131.993 18.3069 131.893 19.4069 131.76 21.1402C131.693 22.8735 131.66 24.6069 131.66 26.3402L132.06 42.3402L132.46 54.7402C133.06 54.6735 134.227 54.3735 135.96 53.8402C137.76 53.2402 139.26 52.6735 140.46 52.1402C148.927 48.7402 155.227 45.3402 159.36 41.9402C163.56 38.4735 165.66 34.5069 165.66 30.0402ZM238.16 18.5402C238.16 19.8069 237.527 20.7069 236.26 21.2402C234.993 21.7735 233.127 22.2735 230.66 22.7402C227.927 23.2735 224.46 23.8069 220.26 24.3402C216.06 24.8069 212.66 25.1069 210.06 25.2402C209.86 28.1069 209.593 36.3735 209.26 50.0402C208.927 63.7069 208.727 73.8069 208.66 80.3402C212.26 80.2735 216.993 80.0402 222.86 79.6402C227.793 79.3735 230.56 79.2402 231.16 79.2402C232.36 79.2402 233.427 79.5069 234.36 80.0402C235.36 80.5735 235.86 81.4069 235.86 82.5402C235.86 83.4735 235.693 84.1402 235.36 84.5402C235.093 84.9402 234.46 85.1402 233.46 85.1402C233.06 85.1402 231.96 85.0402 230.16 84.8402C228.827 84.5735 227.693 84.4402 226.76 84.4402C223.627 84.4402 217.36 84.6402 207.96 85.0402C207.627 85.5069 207.227 85.8402 206.76 86.0402C206.36 86.3069 205.993 86.4402 205.66 86.4402C205.26 86.4402 204.86 86.3402 204.46 86.1402C204.06 85.9402 203.827 85.6402 203.76 85.2402L199.26 85.7402C194.06 86.4069 190.193 86.7402 187.66 86.7402C185.46 86.7402 183.793 86.2735 182.66 85.3402C182.06 84.8069 181.76 83.8402 181.76 82.4402C181.76 82.0402 181.96 81.5402 182.36 80.9402C182.827 80.3402 183.293 80.0402 183.76 80.0402C183.893 80.0402 184.393 80.2402 185.26 80.6402C186.193 80.9735 187.06 81.1402 187.86 81.1402C190.327 81.1402 193.96 81.0069 198.76 80.7402L203.36 80.4402L203.96 65.7402C204.027 64.2069 204.093 62.8402 204.16 61.6402C204.227 60.3735 204.26 59.3069 204.26 58.4402L205.26 25.7402C198.327 26.2069 195.027 26.4402 195.36 26.4402C188.56 26.9735 184.56 27.2402 183.36 27.2402C182.227 27.2402 181.16 26.8735 180.16 26.1402C179.16 25.4069 178.66 24.4735 178.66 23.3402C178.66 22.5402 178.86 21.9069 179.26 21.4402C179.727 20.9735 180.327 20.7402 181.06 20.7402C181.593 20.7402 182.127 20.7735 182.66 20.8402C183.193 20.9069 183.727 20.9735 184.26 21.0402C185.927 21.3735 187.527 21.5402 189.06 21.5402C190.527 21.5402 193.327 21.4402 197.46 21.2402C201.593 20.9735 204.36 20.8069 205.76 20.7402C205.827 19.8735 206.127 19.1735 206.66 18.6402C207.193 18.0402 207.893 17.7402 208.76 17.7402C209.16 17.7402 209.493 18.0069 209.76 18.5402C210.027 19.0735 210.16 19.6735 210.16 20.3402C214.027 20.2069 220.993 19.3402 231.06 17.7402C231.86 17.6069 232.727 17.2402 233.66 16.6402C234.66 16.0402 235.227 15.7402 235.36 15.7402C236.027 15.7402 236.66 16.0069 237.26 16.5402C237.86 17.0735 238.16 17.7402 238.16 18.5402ZM299.869 18.5402C299.869 19.3402 299.302 20.0402 298.169 20.6402C296.369 21.6402 293.535 22.7069 289.669 23.8402C285.869 24.9735 282.735 25.7735 280.269 26.2402C276.402 26.9735 272.502 27.5735 268.569 28.0402C264.702 28.4402 262.202 28.6735 261.069 28.7402C261.135 32.6069 261.235 36.6069 261.369 40.7402C261.502 44.8069 261.602 47.6069 261.669 49.1402C264.269 48.8069 268.169 48.1735 273.369 47.2402L277.169 46.6402C281.369 45.9069 284.602 44.5735 286.869 42.6402C288.069 41.7069 288.935 41.2402 289.469 41.2402C289.935 41.2402 290.302 41.5069 290.569 42.0402C290.902 42.5069 291.069 43.0069 291.069 43.5402C291.069 44.7402 289.702 46.0735 286.969 47.5402C284.302 48.9402 281.335 49.9735 278.069 50.6402C275.335 51.2402 272.269 51.8069 268.869 52.3402C265.469 52.8735 263.235 53.2069 262.169 53.3402C262.569 64.7402 263.735 73.2069 265.669 78.7402C267.602 79.4069 269.502 79.9069 271.369 80.2402C273.235 80.5069 275.635 80.6402 278.569 80.6402C281.502 80.6402 284.302 80.2735 286.969 79.5402C289.635 78.7402 291.769 77.7735 293.369 76.6402C295.035 75.5069 295.869 74.4402 295.869 73.4402C295.869 72.9069 295.769 72.4069 295.569 71.9402C295.369 71.4069 295.102 70.8735 294.769 70.3402C294.635 70.1402 294.402 69.8402 294.069 69.4402C293.802 68.9735 293.669 68.6069 293.669 68.3402C293.669 67.6735 294.402 67.3402 295.869 67.3402C296.935 67.3402 297.835 67.8069 298.569 68.7402C299.369 69.6069 299.769 70.5735 299.769 71.6402C299.769 73.7735 298.802 75.8735 296.869 77.9402C295.002 80.0069 292.402 81.6735 289.069 82.9402C285.802 84.2735 282.169 84.9402 278.169 84.9402C274.102 84.9402 270.769 84.7069 268.169 84.2402C265.569 83.8402 263.602 83.0069 262.269 81.7402C260.669 79.9402 259.535 76.8069 258.869 72.3402C258.269 67.8735 257.735 61.9069 257.269 54.4402C256.002 54.7735 254.569 55.0735 252.969 55.3402C251.435 55.5402 250.269 55.6402 249.469 55.6402C248.669 55.6402 248.002 55.4069 247.469 54.9402C247.002 54.4069 246.769 53.7735 246.769 53.0402C246.769 52.5735 246.835 52.1735 246.969 51.8402C247.169 51.5069 247.435 51.3069 247.769 51.2402C249.969 50.9735 251.569 50.8069 252.569 50.7402L256.869 50.2402C256.602 41.6402 256.335 34.6402 256.069 29.2402C255.069 29.2402 254.269 29.2735 253.669 29.3402L249.069 29.4402C248.469 29.4402 248.002 29.2735 247.669 28.9402C247.335 28.6069 247.169 28.2402 247.169 27.8402C247.169 26.2402 248.235 25.1735 250.369 24.6402C251.169 24.5069 252.169 24.3735 253.369 24.2402C254.635 24.0402 255.469 23.9402 255.869 23.9402C257.135 22.5402 258.535 21.8402 260.069 21.8402C260.335 21.8402 260.535 22.0735 260.669 22.5402C260.869 22.9402 260.969 23.2402 260.969 23.4402C265.369 23.2402 270.602 22.7402 276.669 21.9402C280.669 21.4069 286.835 20.1402 295.169 18.1402L298.869 17.3402C299.535 17.3402 299.869 17.7402 299.869 18.5402ZM353.248 64.8402C353.248 68.1735 352.115 71.4735 349.848 74.7402C347.648 77.9402 344.515 80.5402 340.448 82.5402C336.448 84.6069 331.882 85.6402 326.748 85.6402C322.415 85.6402 318.982 85.2735 316.448 84.5402C313.915 83.8735 312.648 82.9069 312.648 81.6402C312.648 80.9735 313.115 79.8735 314.048 78.3402C315.048 76.7402 315.815 75.9402 316.348 75.9402C317.148 75.9402 317.548 76.1069 317.548 76.4402C317.548 76.6402 317.415 76.8735 317.148 77.1402C316.948 77.4069 316.848 77.6735 316.848 77.9402C316.848 78.1402 317.248 78.4402 318.048 78.8402C318.915 79.2402 320.215 79.6069 321.948 79.9402C323.682 80.2735 325.782 80.4402 328.248 80.4402C332.182 80.4402 335.615 79.6735 338.548 78.1402C341.548 76.6069 343.848 74.6735 345.448 72.3402C347.048 70.0069 347.848 67.7402 347.848 65.5402C347.848 62.6735 346.448 60.2069 343.648 58.1402C340.915 56.0735 336.482 54.1069 330.348 52.2402C324.415 50.3069 319.815 48.7069 316.548 47.4402C313.348 46.1069 310.748 44.5069 308.748 42.6402C306.748 40.7069 305.748 38.3735 305.748 35.6402C305.748 31.9735 307.815 28.3735 311.948 24.8402C316.082 21.2402 321.182 18.3402 327.248 16.1402C333.315 13.8735 338.948 12.7402 344.148 12.7402C346.815 12.7402 348.248 13.2735 348.448 14.3402C348.648 15.4069 348.748 16.6069 348.748 17.9402C348.748 18.9402 348.382 19.4402 347.648 19.4402C347.315 19.4402 346.915 19.3402 346.448 19.1402C346.048 18.8735 345.682 18.6735 345.348 18.5402C344.948 18.4069 344.482 18.2735 343.948 18.1402C343.415 18.0069 342.648 17.9402 341.648 17.9402C338.182 17.9402 334.015 18.8402 329.148 20.6402C324.282 22.4402 320.048 24.6735 316.448 27.3402C312.915 30.0069 311.148 32.5735 311.148 35.0402C311.148 37.0402 311.948 38.7735 313.548 40.2402C315.215 41.7069 317.415 42.9735 320.148 44.0402C322.882 45.0402 326.748 46.3069 331.748 47.8402C339.082 49.9735 344.482 52.3735 347.948 55.0402C351.482 57.7069 353.248 60.9735 353.248 64.8402Z" fill="#FFBF1F"/>
</g>
<defs>
<clipPath id="clip0_2_21">
<rect width="373" height="105" fill="white"/>
</clipPath>
</defs>
</svg>
