<?xml version="1.0" encoding="utf-8"?>
<!-- Generator: Adobe Illustrator 27.0.0, SVG Export Plug-In . SVG Version: 6.00 Build 0)  -->
<svg version="1.1" id="Layer_1" xmlns="http://www.w3.org/2000/svg" xmlns:xlink="http://www.w3.org/1999/xlink" x="0px" y="0px"
	 viewBox="0 0 324.7 271.2" style="enable-background:new 0 0 324.7 271.2;" xml:space="preserve">
<style type="text/css">
	.st0{fill:#FEFEFE;}
	.st1{fill:#FFBF1F;}
</style>
<g>
	<g>
		<path class="st0" d="M81.8,57.5V0h12.4l23.4,39.5V0h11.7v57.5H117L93.5,18v39.5H81.8z"/>
		<path class="st0" d="M139.1,57.5V0h41.8v10h-30.1v12.3h27.5v9.8h-27.5v14.8h31.5v10.6H139.1z"/>
		<path class="st0" d="M200.5,57.5L184,0h12.3l9.8,40.6L214.5,0h12.6l8.3,40.6L245.2,0h12.1l-16.4,57.5h-11.3l-8.9-44.1l-8.9,44.1
			H200.5z"/>
		<path class="st0" d="M76.8,115.7c-2.1,2.9-4.6,5-7.3,6.4c-2.7,1.4-5.9,2-9.6,2c-8,0-14.6-2.8-19.6-8.4c-5-5.6-7.5-12.9-7.5-22
			c0-9.2,2.5-16.5,7.5-22c5-5.5,11.6-8.2,19.9-8.2c7.2,0,13.1,1.7,17.7,5.2c4.6,3.5,7.3,8.2,8.1,14.2H74c-0.7-3-2.2-5.3-4.5-6.8
			c-2.3-1.6-5.2-2.3-8.8-2.3c-4.8,0-8.6,1.8-11.3,5.3c-2.7,3.5-4.1,8.4-4.1,14.6c0,6.2,1.4,11.1,4.3,14.7c2.9,3.5,6.8,5.3,11.8,5.3
			c3.8,0,6.9-1.1,9.4-3.3c2.5-2.2,4.1-5.2,4.7-9.1h-13v-9.8h23.8v31.1h-7.9L76.8,115.7z"/>
		<path class="st0" d="M95.6,122.5V65h27.9c6.3,0,10.9,1.3,13.9,4c3,2.7,4.5,6.8,4.5,12.3c0,3.5-0.7,6.4-2.2,8.8
			c-1.5,2.3-3.6,3.9-6.3,4.8c2.5,0.9,4.3,2.2,5.3,4.1c1.1,1.8,1.7,4.7,1.8,8.5l0.2,6.8c0,0.1,0,0.1,0,0.2c0.1,3.4,0.8,5.5,2.2,6.2
			v1.8h-13c-0.4-0.8-0.7-1.8-1-3c-0.2-1.2-0.4-2.6-0.4-4.2l-0.2-6.1c-0.1-3.6-0.8-6-2-7.2s-3.4-1.9-6.5-1.9h-12.5v22.4H95.6z
			 M107.4,90.2h13.9c3,0,5.2-0.6,6.7-1.8c1.4-1.2,2.1-3.2,2.1-5.8c0-2.5-0.7-4.4-2.1-5.7c-1.4-1.3-3.4-1.9-6.2-1.9h-14.5V90.2z"/>
		<path class="st0" d="M150.7,122.5V65h41.8v10h-30.1v12.3h27.5v9.8h-27.5v14.8h31.5v10.6H150.7z"/>
		<path class="st0" d="M200.9,122.5V65h41.8v10h-30.1v12.3h27.5v9.8h-27.5v14.8h31.5v10.6H200.9z"/>
		<path class="st0" d="M251.2,122.5V65h12.4l23.4,39.5V65h11.7v57.5h-12.2L262.8,83v39.5H251.2z"/>
		<path class="st0" d="M40.4,169.8h11.7c0.4,3.2,1.7,5.5,3.9,7c2.1,1.5,5.2,2.3,9.3,2.3c3.4,0,6-0.6,7.8-1.8c1.7-1.2,2.6-3,2.6-5.4
			c0-3.5-5-6.4-15-8.7c-0.1,0-0.2-0.1-0.4-0.1c-0.3-0.1-0.7-0.1-1.2-0.3c-5.4-1.2-9.2-2.5-11.5-3.9c-2-1.3-3.6-3.1-4.6-5.3
			c-1.1-2.2-1.6-4.8-1.6-7.8c0-5.6,1.9-9.9,5.7-12.9c3.8-3,9.3-4.5,16.5-4.5c6.7,0,12,1.6,15.8,4.8c3.8,3.2,5.8,7.7,6,13.4H73.9
			c-0.2-2.8-1.3-4.9-3.2-6.4c-1.9-1.5-4.7-2.2-8.2-2.2c-3.1,0-5.5,0.6-7.2,1.8s-2.5,2.9-2.5,5.2c0,3,3.3,5.3,9.8,6.8
			c1.8,0.4,3.2,0.7,4.1,1c4.2,1.1,7.2,1.9,8.9,2.5c1.8,0.6,3.3,1.3,4.6,2c2.3,1.3,4.1,3,5.3,5.2s1.8,4.7,1.8,7.7
			c0,6-2,10.6-6.1,13.9c-4,3.3-9.7,4.9-17.1,4.9c-7.2,0-12.9-1.7-17-5C43,180.7,40.8,176,40.4,169.8z"/>
		<path class="st0" d="M109,130h13.7l20.7,57.5H131l-3.9-11.8h-22.3l-3.8,11.8H88.5L109,130z M115.9,141.5l-8,24.5h16L115.9,141.5z"
			/>
		<path class="st0" d="M147.3,187.5V130h11.8v46.9h28.1v10.6H147.3z"/>
		<path class="st0" d="M206.3,130H220l20.7,57.5h-12.4l-3.9-11.8h-22.3l-3.8,11.8h-12.5L206.3,130z M213.2,141.5l-8,24.5h16
			L213.2,141.5z"/>
		<path class="st0" d="M244.6,187.5V130h22.5c8.8,0,15.4,2.4,19.7,7.1s6.5,12,6.5,21.7c0,5.3-0.8,9.9-2.4,13.9c-1.6,4-3.9,7.2-7,9.7
			c-2.3,1.8-4.9,3.1-7.8,3.9c-2.9,0.8-7,1.2-12.3,1.2H244.6z M256.2,177.1h9.5c5.5,0,9.5-1.4,11.9-4.3c2.5-2.9,3.7-7.5,3.7-14
			c0-6.4-1.1-11.2-3.4-14.2c-2.3-3-5.9-4.5-10.7-4.5h-10.9V177.1z"/>
	</g>
	<g>
		<path class="st1" d="M44.1,258.5c-2.2,3.2-5.4,5.9-9.4,7.9c-4,2-8.6,3-13.8,3c-4.3,0-7.8-0.3-10.3-1c-2.5-0.7-3.8-1.7-3.8-3
			c0-0.7,0.5-1.8,1.5-3.3c1-1.6,1.7-2.4,2.2-2.4c0.8,0,1.2,0.2,1.2,0.5c0,0.2-0.1,0.4-0.4,0.7c-0.2,0.3-0.3,0.5-0.3,0.8
			c0,0.2,0.4,0.5,1.2,0.9c0.8,0.4,2.1,0.8,3.8,1.1c1.7,0.3,3.8,0.5,6.3,0.5c3.9,0,7.4-0.8,10.4-2.3c3-1.5,5.2-3.5,6.8-5.8
			c1.6-2.3,2.4-4.6,2.4-6.8c0-2.9-1.4-5.3-4.2-7.4c-2.8-2.1-7.2-4-13.3-5.9c-5.9-1.9-10.5-3.5-13.8-4.9c-3.2-1.3-5.9-2.9-7.9-4.8
			s-3-4.2-3-7c0-3.7,2.1-7.3,6.2-10.8c4.1-3.6,9.2-6.5,15.3-8.7c6.1-2.2,11.7-3.4,16.9-3.4c2.7,0,4.1,0.5,4.3,1.6
			c0.2,1.1,0.3,2.3,0.3,3.6c0,1-0.4,1.5-1.1,1.5c-0.3,0-0.7-0.1-1.1-0.4c-0.4-0.2-0.8-0.4-1.1-0.5c-0.4-0.1-0.9-0.3-1.4-0.4
			c-0.5-0.1-1.3-0.2-2.3-0.2c-3.5,0-7.6,0.9-12.5,2.7c-4.9,1.8-9.1,4-12.6,6.7c-3.6,2.7-5.4,5.2-5.4,7.7c0,2,0.8,3.7,2.5,5.2
			c1.6,1.5,3.8,2.7,6.5,3.8c2.7,1,6.6,2.3,11.6,3.9c7.3,2.1,12.8,4.5,16.2,7.2c3.5,2.7,5.2,5.9,5.2,9.8
			C47.5,252,46.4,255.2,44.1,258.5z"/>
		<path class="st1" d="M101.6,204.4c-1.8,1-4.6,2.1-8.5,3.2c-3.8,1.1-7,1.9-9.5,2.4c-3.9,0.7-7.8,1.3-11.6,1.8
			c-3.9,0.4-6.4,0.7-7.5,0.8c0.1,3.9,0.2,7.9,0.3,12c0.1,4.1,0.2,6.9,0.3,8.4c2.6-0.3,6.5-1,11.7-1.9l3.8-0.6c4.2-0.7,7.4-2.1,9.7-4
			c1.2-0.9,2.1-1.4,2.6-1.4c0.5,0,0.9,0.2,1.1,0.8c0.3,0.5,0.5,1,0.5,1.6c0,1.2-1.4,2.5-4.1,3.9c-2.7,1.4-5.7,2.5-8.9,3.1
			c-2.7,0.6-5.8,1.2-9.2,1.7c-3.4,0.5-5.6,0.9-6.7,1c0.4,11.4,1.6,19.9,3.5,25.4c1.9,0.7,3.8,1.1,5.7,1.5c1.9,0.3,4.3,0.4,7.2,0.4
			c2.9,0,5.7-0.4,8.4-1.1c2.7-0.8,4.8-1.7,6.5-2.9c1.6-1.1,2.4-2.2,2.4-3.2c0-0.5-0.1-1.1-0.3-1.6c-0.2-0.5-0.5-1-0.8-1.5
			c-0.1-0.2-0.3-0.5-0.6-1c-0.3-0.4-0.4-0.8-0.4-1c0-0.7,0.7-1,2.2-1c1.1,0,2,0.5,2.8,1.4c0.8,0.9,1.1,1.9,1.1,2.9
			c0,2.1-0.9,4.2-2.8,6.3c-1.9,2.1-4.5,3.8-7.8,5c-3.3,1.3-6.9,2-10.9,2c-4.1,0-7.4-0.2-10-0.6c-2.6-0.4-4.6-1.3-5.9-2.6
			c-1.6-1.8-2.7-4.9-3.3-9.4c-0.6-4.5-1.2-10.4-1.7-17.9c-1.3,0.3-2.7,0.6-4.2,0.9c-1.6,0.2-2.8,0.3-3.5,0.3s-1.5-0.2-2-0.8
			s-0.8-1.1-0.8-1.8c0-0.5,0.1-0.9,0.2-1.2c0.2-0.3,0.4-0.5,0.8-0.6c2.2-0.3,3.8-0.4,4.8-0.5l4.3-0.5c-0.3-8.6-0.5-15.6-0.8-21
			c-1,0-1.8,0-2.4,0.1l-4.6,0.1c-0.6,0-1.1-0.2-1.4-0.5c-0.3-0.3-0.5-0.7-0.5-1.1c0-1.6,1.1-2.7,3.2-3.2c0.8-0.1,1.8-0.3,3.1-0.4
			c1.2-0.2,2-0.2,2.4-0.2c1.3-1.4,2.7-2.1,4.2-2.1c0.3,0,0.5,0.2,0.6,0.6c0.2,0.4,0.2,0.8,0.2,1c4.4-0.2,9.6-0.7,15.7-1.5
			c4-0.5,10.2-1.8,18.5-3.8l3.7-0.8c0.7,0,1,0.4,1,1.2C103.3,203.1,102.7,203.8,101.6,204.4z"/>
		<path class="st1" d="M163,261.6c-0.7,1.1-1.4,1.7-2.1,1.7c-0.7,0-1.3-0.1-1.9-0.4c-0.6-0.2-1.5-0.7-2.7-1.4
			c-4.2-2.5-9.7-4.9-16.5-7.2c-3-1-6.6-2-10.7-3.1c-4.1-1.1-7.3-1.9-9.6-2.4l0.7,12.9c0.1,1.8,0.3,3.3,0.7,4.5
			c0.4,1.2,0.6,2,0.6,2.4c0,0.7-0.4,1.3-1.1,1.8c-0.7,0.5-1.5,0.8-2.3,0.8c-1,0-1.6-0.7-1.9-2.1c0-0.1-0.1-0.7-0.2-1.8
			c-0.2-1.1-0.2-2.6-0.2-4.5c0-1.3-0.1-4-0.4-8.1c-0.1-1.4-0.1-2.8-0.2-4.1c-0.1-1.3-0.1-2.4-0.1-3.4c-0.2-0.2-0.4-0.4-0.8-0.7
			c-0.3-0.3-0.5-0.6-0.8-1.1c-0.2-0.6-0.4-1.2-0.5-1.9c-0.1-0.7-0.2-1.2-0.2-1.5c0-0.5,0.1-0.8,0.4-1.1c0.3-0.3,0.7-0.6,1.2-0.9
			c-0.4-16.7-0.6-26.2-0.6-28.6c0-2.1,0-4.1,0.1-5.9c0.1-1.8,0.1-3,0.1-3.6c-0.4,0.1-1.6,0.2-3.6,0.5c-2,0.3-3.6,0.5-4.8,0.8
			c-4.3,1-7.5,1.9-9.8,2.9c-2.2,0.9-4.4,1.9-6.5,3c-0.6,0.4-1.2,0.7-1.8,1c-0.6,0.2-1.1,0.3-1.6,0.3c-0.5,0-1-0.2-1.4-0.8
			s-0.6-1.1-0.6-1.8c0-1.3,2.1-2.7,6.4-4.4c4.3-1.7,8.9-3,13.9-4.1c2.8-0.6,6.4-1.1,10.7-1.6c4.3-0.4,8.4-0.6,12.1-0.6
			c6.4,0,11.9,0.7,16.4,2.1s7.9,3.4,10.2,5.9c2.3,2.5,3.5,5.4,3.5,8.7c0,4.2-1.2,7.8-3.6,10.8s-5.6,5.6-9.5,7.8
			c-4,2.2-9.4,4.7-16.1,7.5c-1.7,0.8-3.5,1.5-5.2,2.2c-1.7,0.7-2.8,1.1-3.4,1.4c0,0.4,0,0.7,0.1,0.9c7.2,1.6,14.3,3.4,21.3,5.5
			l2.1,0.6c7.3,2.2,12.6,3.9,16.1,5.1c3.5,1.2,5.2,2.2,5.2,3.1C164,259.5,163.7,260.5,163,261.6z M149.2,207.7
			c-1.9-1.9-4.9-3.4-8.8-4.6c-3.9-1.2-8.6-1.8-14.1-1.8c-4.1,0-6.7,0.1-7.8,0.2c-0.1,0.5-0.1,1.6-0.2,3.3c-0.1,1.7-0.1,3.5-0.1,5.2
			l0.4,16l0.4,12.4c0.6-0.1,1.8-0.4,3.6-0.9c1.8-0.6,3.2-1.1,4.4-1.7c8.5-3.4,14.8-6.8,19-10.2c4.2-3.4,6.2-7.4,6.2-11.8
			C152.1,211.6,151.1,209.6,149.2,207.7z"/>
		<path class="st1" d="M217.7,205c-1.3,0.5-3.1,1-5.6,1.5c-2.7,0.5-6.2,1.1-10.4,1.6c-4.2,0.5-7.6,0.8-10.2,0.9
			c-0.2,2.9-0.5,11.1-0.8,24.8c-0.3,13.7-0.5,23.8-0.6,30.3c3.6-0.1,8.3-0.3,14.2-0.7c4.9-0.3,7.7-0.4,8.3-0.4
			c1.2,0,2.3,0.3,3.2,0.8c1,0.5,1.5,1.4,1.5,2.5c0,0.9-0.2,1.6-0.5,2c-0.3,0.4-1,0.6-2,0.6c-0.4,0-1.5-0.1-3.3-0.3
			c-1.3-0.3-2.5-0.4-3.4-0.4c-3.1,0-9.4,0.2-18.8,0.6c-0.3,0.5-0.7,0.8-1.1,1c-0.4,0.2-0.8,0.3-1.2,0.3c-0.4,0-0.8-0.1-1.2-0.3
			c-0.4-0.2-0.6-0.5-0.7-0.9l-4.5,0.5c-5.2,0.7-9.1,1-11.6,1c-2.2,0-3.9-0.5-5-1.4c-0.6-0.5-0.9-1.5-0.9-2.9c0-0.4,0.2-0.9,0.6-1.5
			c0.4-0.6,0.9-0.9,1.3-0.9c0.1,0,0.7,0.2,1.6,0.5c0.9,0.4,1.8,0.5,2.5,0.5c2.5,0,6.1-0.1,10.9-0.4l4.6-0.3l0.6-14.7
			c0.1-1.5,0.1-2.9,0.2-4.1c0.1-1.2,0.1-2.3,0.1-3.1l1-32.7c-6.9,0.5-10.2,0.7-9.9,0.7c-6.8,0.5-10.8,0.8-12,0.8
			c-1.1,0-2.2-0.4-3.2-1.1c-1-0.7-1.5-1.7-1.5-2.8c0-0.8,0.2-1.4,0.6-1.9c0.4-0.5,1-0.7,1.8-0.7c0.5,0,1.1,0,1.6,0.1
			c0.5,0.1,1.1,0.1,1.6,0.2c1.7,0.3,3.3,0.5,4.8,0.5c1.5,0,4.3-0.1,8.4-0.4c4.1-0.2,6.9-0.4,8.3-0.5c0.1-0.9,0.4-1.6,0.9-2.1
			c0.5-0.6,1.2-0.9,2.1-0.9c0.4,0,0.7,0.3,1,0.8c0.3,0.5,0.4,1.1,0.4,1.8c3.9-0.1,10.8-1,20.9-2.6c0.8-0.1,1.7-0.5,2.6-1.1
			c1-0.6,1.5-0.9,1.7-0.9c0.7,0,1.3,0.3,1.9,0.8c0.6,0.5,0.9,1.2,0.9,2C219.6,203.6,219,204.5,217.7,205z"/>
		<path class="st1" d="M274.6,204.4c-1.8,1-4.6,2.1-8.5,3.2c-3.8,1.1-7,1.9-9.5,2.4c-3.9,0.7-7.8,1.3-11.6,1.8
			c-3.9,0.4-6.4,0.7-7.6,0.8c0.1,3.9,0.2,7.9,0.3,12c0.1,4.1,0.2,6.9,0.3,8.4c2.6-0.3,6.5-1,11.7-1.9l3.8-0.6c4.2-0.7,7.4-2.1,9.7-4
			c1.2-0.9,2.1-1.4,2.6-1.4c0.5,0,0.8,0.2,1.2,0.8c0.3,0.5,0.4,1,0.4,1.6c0,1.2-1.3,2.5-4,3.9c-2.7,1.4-5.7,2.5-9,3.1
			c-2.7,0.6-5.8,1.2-9.2,1.7c-3.4,0.5-5.6,0.9-6.7,1c0.4,11.4,1.6,19.9,3.5,25.4c1.9,0.7,3.8,1.1,5.7,1.5c1.9,0.3,4.3,0.4,7.2,0.4
			s5.7-0.4,8.4-1.1c2.7-0.8,4.8-1.7,6.5-2.9c1.6-1.1,2.5-2.2,2.5-3.2c0-0.5-0.1-1.1-0.3-1.6c-0.2-0.5-0.5-1-0.8-1.5
			c-0.1-0.2-0.3-0.5-0.6-1c-0.3-0.4-0.5-0.8-0.5-1c0-0.7,0.7-1,2.2-1c1.1,0,2,0.5,2.8,1.4c0.8,0.9,1.1,1.9,1.1,2.9
			c0,2.1-1,4.2-2.8,6.3c-1.9,2.1-4.5,3.8-7.8,5c-3.3,1.3-7,2-11,2c-4.1,0-7.4-0.2-10-0.6c-2.6-0.4-4.6-1.3-5.9-2.6
			c-1.6-1.8-2.7-4.9-3.3-9.4c-0.6-4.5-1.2-10.4-1.7-17.9c-1.3,0.3-2.7,0.6-4.2,0.9c-1.6,0.2-2.8,0.3-3.5,0.3s-1.5-0.2-2-0.8
			s-0.8-1.1-0.8-1.8c0-0.5,0.1-0.9,0.2-1.2c0.2-0.3,0.4-0.5,0.8-0.6c2.2-0.3,3.8-0.4,4.8-0.5l4.3-0.5c-0.3-8.6-0.5-15.6-0.8-21
			c-1,0-1.8,0-2.4,0.1l-4.6,0.1c-0.6,0-1.1-0.2-1.4-0.5c-0.3-0.3-0.5-0.7-0.5-1.1c0-1.6,1.1-2.7,3.2-3.2c0.8-0.1,1.8-0.3,3-0.4
			c1.2-0.2,2-0.2,2.5-0.2c1.3-1.4,2.7-2.1,4.2-2.1c0.3,0,0.5,0.2,0.7,0.6c0.2,0.4,0.2,0.8,0.2,1c4.4-0.2,9.6-0.7,15.7-1.5
			c4-0.5,10.2-1.8,18.5-3.8l3.7-0.8c0.7,0,1,0.4,1,1.2C276.3,203.1,275.7,203.8,274.6,204.4z"/>
		<path class="st1" d="M321.4,258.5c-2.2,3.2-5.4,5.9-9.4,7.9c-4,2-8.6,3-13.8,3c-4.3,0-7.8-0.3-10.3-1c-2.5-0.7-3.8-1.7-3.8-3
			c0-0.7,0.5-1.8,1.5-3.3c1-1.6,1.7-2.4,2.2-2.4c0.8,0,1.2,0.2,1.2,0.5c0,0.2-0.1,0.4-0.4,0.7c-0.2,0.3-0.3,0.5-0.3,0.8
			c0,0.2,0.4,0.5,1.2,0.9c0.8,0.4,2.1,0.8,3.8,1.1c1.7,0.3,3.8,0.5,6.3,0.5c3.9,0,7.4-0.8,10.4-2.3c3-1.5,5.2-3.5,6.8-5.8
			c1.6-2.3,2.4-4.6,2.4-6.8c0-2.9-1.4-5.3-4.2-7.4c-2.8-2.1-7.2-4-13.3-5.9c-5.9-1.9-10.5-3.5-13.8-4.9c-3.2-1.3-5.9-2.9-7.9-4.8
			s-3-4.2-3-7c0-3.7,2.1-7.3,6.2-10.8c4.1-3.6,9.2-6.5,15.3-8.7c6.1-2.2,11.7-3.4,16.9-3.4c2.7,0,4.1,0.5,4.3,1.6
			c0.2,1.1,0.3,2.3,0.3,3.6c0,1-0.4,1.5-1.1,1.5c-0.3,0-0.7-0.1-1.2-0.4c-0.4-0.2-0.8-0.4-1.1-0.5c-0.4-0.1-0.9-0.3-1.4-0.4
			c-0.5-0.1-1.3-0.2-2.3-0.2c-3.5,0-7.6,0.9-12.5,2.7c-4.9,1.8-9.1,4-12.7,6.7c-3.6,2.7-5.3,5.2-5.3,7.7c0,2,0.8,3.7,2.5,5.2
			c1.6,1.5,3.8,2.7,6.5,3.8c2.7,1,6.6,2.3,11.6,3.9c7.3,2.1,12.8,4.5,16.2,7.2c3.5,2.7,5.2,5.9,5.2,9.8
			C324.7,252,323.6,255.2,321.4,258.5z"/>
	</g>
</g>
</svg>
