<?xml version="1.0" encoding="utf-8"?>
<!-- Generator: Adobe Illustrator 27.0.0, SVG Export Plug-In . SVG Version: 6.00 Build 0)  -->
<svg version="1.1" id="Layer_1" xmlns="http://www.w3.org/2000/svg" xmlns:xlink="http://www.w3.org/1999/xlink" x="0px" y="0px"
	 viewBox="0 0 274.2 146.8" style="enable-background:new 0 0 274.2 146.8;" xml:space="preserve">
<style type="text/css">
	.st0{fill:none;stroke:#009132;stroke-width:10;stroke-miterlimit:10;}
	.st1{enable-background:new    ;}
	.st2{fill:#FFFFFF;}
	.st3{fill:#009132;}
	.st4{fill:none;stroke:#009132;stroke-width:9;stroke-miterlimit:10;}
</style>
<text transform="matrix(1.0483 0 0 1 -569.009 158.9762)" class="st3" style="font-family:'NotoSansKR-Bold'; font-size:66.5278px; letter-spacing:-2.9;">fresh</text>
<text transform="matrix(1.0483 0 0 1 -475.4421 291.9022)" class="st3" style="font-family:'NotoSansKR-Bold'; font-size:66.5278px; letter-spacing:-2.9;">good</text>
<path class="st0" d="M94.6,334.2c0-8.4,12.5-15.2,27.9-15.2s27.9,6.8,27.9,15.2"/>
<path class="st0" d="M175.1,233.3c-0.9-1.5-1.3-3-1.3-4.7"/>
<g>
	<g class="st1">
		<path class="st2" d="M31.4,59.5c-3.6,0-6.9-0.8-9.8-2.3c-2.9-1.6-5.3-3.8-7-6.7s-2.6-6.4-2.6-10.5c0-3,0.5-5.7,1.5-8.1
			c1-2.4,2.4-4.4,4.1-6.2c1.7-1.7,3.7-3,5.9-3.9c2.2-0.9,4.4-1.4,6.7-1.4c3.6,0,6.6,0.8,9,2.3c2.4,1.5,4.2,3.6,5.5,6.3
			c1.2,2.7,1.8,5.8,1.8,9.2c0,0.9,0,1.7-0.1,2.6c-0.1,0.8-0.2,1.5-0.3,2H21.9c0.3,2,0.9,3.7,1.9,5.1c1,1.4,2.2,2.4,3.8,3.1
			c1.5,0.7,3.3,1,5.2,1c1.6,0,3.1-0.2,4.5-0.6c1.4-0.4,2.8-1.1,4.3-1.9l3.5,6c-1.9,1.2-4,2.2-6.4,3C36.2,59.1,33.8,59.5,31.4,59.5z
			 M21.7,36.1h16c0-2.5-0.6-4.5-1.8-6c-1.2-1.5-3.1-2.2-5.6-2.2c-1.3,0-2.6,0.3-3.8,0.9c-1.2,0.6-2.2,1.5-3.1,2.7
			C22.5,32.8,22,34.3,21.7,36.1z"/>
		<path class="st2" d="M59.6,59.5c-2.3,0-4.3-0.5-6-1.4s-3.1-2.3-4-4c-1-1.7-1.4-3.6-1.4-5.7c0-3.9,1.8-7,5.4-9.2
			c3.6-2.2,9.3-3.7,17.1-4.5c0-1.2-0.3-2.3-0.7-3.3c-0.4-1-1.1-1.7-2.1-2.3c-1-0.6-2.2-0.9-3.9-0.9c-1.8,0-3.6,0.3-5.4,1
			c-1.8,0.7-3.6,1.5-5.4,2.6l-3.6-6.5c1.5-0.9,3.2-1.8,4.9-2.5c1.7-0.7,3.5-1.3,5.4-1.8c1.9-0.5,3.9-0.7,5.9-0.7
			c3.3,0,6.1,0.6,8.3,1.9c2.2,1.2,3.9,3.1,5,5.5c1.1,2.4,1.7,5.5,1.7,9v21.8h-8.4l-0.7-4h-0.3c-1.7,1.4-3.5,2.6-5.4,3.5
			C63.9,59,61.8,59.5,59.6,59.5z M63,51.8c1.4,0,2.8-0.3,3.9-1c1.2-0.6,2.4-1.5,3.6-2.7v-7.5c-3.2,0.4-5.7,0.9-7.5,1.5
			c-1.9,0.7-3.2,1.5-4,2.4c-0.8,0.9-1.2,1.9-1.2,3c0,1.5,0.5,2.5,1.4,3.2C60.2,51.5,61.4,51.8,63,51.8z"/>
		<path class="st2" d="M100.3,59.5c-3.1,0-5.6-0.6-7.5-1.8c-1.9-1.2-3.3-2.8-4.1-4.9c-0.8-2.1-1.3-4.5-1.3-7.3V29h-5.5v-7.3l6.1-0.5
			l1.2-10h8.4v10h9.7V29h-9.7v16.5c0,2.1,0.5,3.7,1.4,4.7c0.9,1,2.3,1.5,4,1.5c0.7,0,1.3-0.1,2-0.3c0.7-0.2,1.3-0.4,1.8-0.5l1.7,7.1
			c-1.1,0.3-2.3,0.6-3.7,0.9C103.5,59.3,102,59.5,100.3,59.5z"/>
		<path class="st3" d="M108.3,29v-7.3l5.9-0.5h17.1V29H108.3z M113.6,58.5V18.3c0-2.6,0.5-4.9,1.4-7c0.9-2.1,2.3-3.7,4.3-5
			c2-1.2,4.6-1.8,7.8-1.8c1.6,0,3,0.1,4.3,0.4s2.3,0.6,3.2,0.9l-1.9,7.3c-1.3-0.6-2.7-0.9-4.2-0.9c-1.5,0-2.6,0.5-3.5,1.4
			c-0.8,0.9-1.3,2.4-1.3,4.5v40.4H113.6z"/>
		<path class="st3" d="M134.3,58.5V21.3h8.4l0.8,6.6h0.2c1.4-2.4,3.1-4.3,5.1-5.6c2-1.3,4-1.9,6-1.9c1.1,0,2,0.1,2.7,0.2
			c0.7,0.2,1.3,0.3,1.8,0.6l-1.7,8.4c-0.7-0.2-1.4-0.3-2-0.4c-0.6-0.1-1.3-0.2-2.2-0.2c-1.5,0-3.1,0.6-4.7,1.7c-1.7,1.1-3,3-4.1,5.7
			v22.2H134.3z"/>
		<path class="st3" d="M177.1,59.5c-3.6,0-6.9-0.8-9.8-2.3c-2.9-1.6-5.3-3.8-7-6.7s-2.6-6.4-2.6-10.5c0-3,0.5-5.7,1.5-8.1
			c1-2.4,2.4-4.4,4.1-6.2c1.7-1.7,3.7-3,5.9-3.9c2.2-0.9,4.4-1.4,6.7-1.4c3.6,0,6.6,0.8,9,2.3c2.4,1.5,4.2,3.6,5.5,6.3
			c1.2,2.7,1.8,5.8,1.8,9.2c0,0.9,0,1.7-0.1,2.6c-0.1,0.8-0.2,1.5-0.3,2h-24.1c0.3,2,0.9,3.7,1.9,5.1c1,1.4,2.2,2.4,3.8,3.1
			c1.5,0.7,3.3,1,5.2,1c1.6,0,3.1-0.2,4.5-0.6c1.4-0.4,2.8-1.1,4.3-1.9l3.5,6c-1.9,1.2-4,2.2-6.4,3C182,59.1,179.6,59.5,177.1,59.5z
			 M167.4,36.1h16c0-2.5-0.6-4.5-1.8-6c-1.2-1.5-3.1-2.2-5.6-2.2c-1.3,0-2.6,0.3-3.8,0.9c-1.2,0.6-2.2,1.5-3.1,2.7
			C168.3,32.8,167.7,34.3,167.4,36.1z"/>
		<path class="st3" d="M208.3,59.5c-2.6,0-5.2-0.5-7.9-1.5c-2.7-1-5-2.2-6.9-3.7l4.7-6.2c1.7,1.2,3.4,2.2,5.1,3
			c1.7,0.7,3.5,1.1,5.3,1.1c2,0,3.4-0.4,4.3-1.1s1.4-1.7,1.4-2.8c0-0.9-0.4-1.7-1.2-2.4c-0.8-0.6-1.8-1.2-3.1-1.7
			c-1.3-0.5-2.6-1-3.9-1.5c-1.6-0.6-3.2-1.4-4.8-2.3c-1.6-0.9-2.9-2-4-3.4c-1.1-1.4-1.6-3.1-1.6-5.2c0-2.2,0.6-4.2,1.8-5.9
			c1.2-1.7,2.9-3,5.1-4c2.2-1,4.7-1.5,7.7-1.5c2.8,0,5.4,0.5,7.6,1.4c2.2,0.9,4.1,2,5.7,3.2l-4.6,5.9c-1.4-1-2.8-1.8-4.1-2.3
			c-1.4-0.6-2.8-0.9-4.2-0.9c-1.8,0-3.1,0.3-4,1c-0.8,0.7-1.3,1.5-1.3,2.6c0,0.9,0.3,1.6,1,2.2c0.7,0.6,1.6,1.1,2.9,1.6
			c1.2,0.4,2.5,0.9,3.8,1.4c1.3,0.4,2.6,1,3.9,1.6c1.3,0.6,2.5,1.3,3.5,2.2c1.1,0.8,1.9,1.9,2.5,3.1c0.6,1.2,0.9,2.7,0.9,4.4
			c0,2.2-0.6,4.2-1.8,6c-1.2,1.8-2.9,3.2-5.2,4.3C214.6,59,211.7,59.5,208.3,59.5z"/>
		<path class="st3" d="M228.2,58.5V5.5h10.3v13.4l-0.5,7c1.5-1.4,3.3-2.7,5.3-3.8c2-1.1,4.3-1.7,7-1.7c4.2,0,7.3,1.3,9.2,4
			c1.9,2.6,2.9,6.3,2.9,11v23.2H252v-22c0-2.9-0.4-4.9-1.3-6.1c-0.9-1.2-2.3-1.7-4.2-1.7c-1.6,0-3,0.4-4.1,1.1
			c-1.2,0.7-2.5,1.8-3.9,3.1v25.6H228.2z"/>
	</g>
	<g class="st1">
		<path class="st2" d="M3.1,88.4v-7.3l5.9-0.5H26v7.7H3.1z M8.4,117.9V77.7c0-2.6,0.5-4.9,1.4-7c0.9-2.1,2.3-3.7,4.3-5
			c2-1.2,4.6-1.8,7.8-1.8c1.6,0,3,0.1,4.3,0.4s2.3,0.6,3.2,0.9l-1.9,7.3c-1.3-0.6-2.7-0.9-4.2-0.9c-1.5,0-2.6,0.5-3.5,1.4
			c-0.8,0.9-1.3,2.4-1.3,4.5v40.4H8.4z"/>
		<path class="st2" d="M44.9,118.9c-3.6,0-6.9-0.8-9.8-2.3c-2.9-1.6-5.3-3.8-7-6.7s-2.6-6.4-2.6-10.5c0-3,0.5-5.7,1.5-8.1
			c1-2.4,2.4-4.4,4.1-6.2c1.7-1.7,3.7-3,5.9-3.9c2.2-0.9,4.4-1.4,6.7-1.4c3.6,0,6.6,0.8,9,2.3c2.4,1.5,4.2,3.6,5.5,6.3
			c1.2,2.7,1.8,5.8,1.8,9.2c0,0.9,0,1.7-0.1,2.6c-0.1,0.8-0.2,1.5-0.3,2H35.4c0.3,2,0.9,3.7,1.9,5.1c1,1.4,2.2,2.4,3.8,3.1
			c1.5,0.7,3.3,1,5.2,1c1.6,0,3.1-0.2,4.5-0.6c1.4-0.4,2.8-1.1,4.3-1.9l3.5,6c-1.9,1.2-4,2.2-6.4,3
			C49.7,118.5,47.3,118.9,44.9,118.9z M35.2,95.5h16c0-2.5-0.6-4.5-1.8-6c-1.2-1.5-3.1-2.2-5.6-2.2c-1.3,0-2.6,0.3-3.8,0.9
			c-1.2,0.6-2.2,1.5-3.1,2.7C36.1,92.2,35.5,93.7,35.2,95.5z"/>
		<path class="st2" d="M81.9,118.9c-3.6,0-6.9-0.8-9.8-2.3c-2.9-1.6-5.3-3.8-7-6.7s-2.6-6.4-2.6-10.5c0-3,0.5-5.7,1.5-8.1
			c1-2.4,2.4-4.4,4.1-6.2c1.7-1.7,3.7-3,5.9-3.9c2.2-0.9,4.4-1.4,6.7-1.4c3.6,0,6.6,0.8,9,2.3c2.4,1.5,4.2,3.6,5.5,6.3
			c1.2,2.7,1.8,5.8,1.8,9.2c0,0.9,0,1.7-0.1,2.6c-0.1,0.8-0.2,1.5-0.3,2H72.5c0.3,2,0.9,3.7,1.9,5.1c1,1.4,2.2,2.4,3.8,3.1
			c1.5,0.7,3.3,1,5.2,1c1.6,0,3.1-0.2,4.5-0.6c1.4-0.4,2.8-1.1,4.3-1.9l3.5,6c-1.9,1.2-4,2.2-6.4,3
			C86.8,118.5,84.4,118.9,81.9,118.9z M72.2,95.5h16c0-2.5-0.6-4.5-1.8-6c-1.2-1.5-3.1-2.2-5.6-2.2c-1.3,0-2.6,0.3-3.8,0.9
			c-1.2,0.6-2.2,1.5-3.1,2.7C73.1,92.2,72.5,93.7,72.2,95.5z"/>
		<path class="st2" d="M111.7,118.9c-2.4,0-4.3-0.5-5.7-1.4c-1.4-1-2.4-2.3-3-4c-0.6-1.7-0.9-3.7-0.9-6V64.8h10.3v43
			c0,1.1,0.2,1.9,0.7,2.3c0.4,0.4,0.9,0.7,1.4,0.7c0.2,0,0.4,0,0.6,0c0.2,0,0.4-0.1,0.8-0.1l1.3,7.3c-0.6,0.2-1.3,0.4-2.2,0.6
			C113.8,118.8,112.8,118.9,111.7,118.9z"/>
		<path class="st3" d="M134.2,134.1c-3.1,0-5.8-0.3-8.3-1c-2.5-0.7-4.4-1.7-5.8-3.1c-1.4-1.4-2.1-3.2-2.1-5.4c0-1.6,0.5-3,1.4-4.3
			c0.9-1.3,2.3-2.5,4.2-3.4v-0.3c-1-0.6-1.9-1.4-2.5-2.5c-0.7-1-1-2.3-1-3.9c0-1.4,0.4-2.7,1.3-3.9c0.9-1.2,1.9-2.2,3-3V103
			c-1.3-0.9-2.6-2.2-3.6-3.9c-1.1-1.7-1.6-3.6-1.6-5.9c0-2.9,0.7-5.4,2.2-7.4c1.5-2,3.4-3.5,5.8-4.5c2.4-1,5-1.5,7.7-1.5
			c1.2,0,2.2,0.1,3.2,0.3c1,0.2,1.9,0.4,2.8,0.7h14v7.2h-6.6c0.5,0.7,0.9,1.5,1.3,2.5c0.3,1,0.5,2,0.5,3.2c0,2.8-0.7,5.1-2,7
			c-1.3,1.9-3.2,3.3-5.4,4.2c-2.3,0.9-4.8,1.4-7.7,1.4c-0.7,0-1.5-0.1-2.4-0.2c-0.9-0.2-1.8-0.4-2.7-0.6c-0.5,0.4-0.9,0.9-1.2,1.4
			c-0.3,0.5-0.5,1.1-0.5,1.9c0,0.9,0.5,1.7,1.4,2.2s2.5,0.8,4.8,0.8h6.7c4.7,0,8.3,0.7,10.8,2.2c2.5,1.5,3.8,3.8,3.8,7.1
			c0,2.5-0.9,4.8-2.6,6.8c-1.7,2-4.2,3.5-7.4,4.7C142.3,133.5,138.5,134.1,134.2,134.1z M135.7,127.8c2,0,3.7-0.2,5.2-0.7
			c1.5-0.5,2.6-1.1,3.5-1.9s1.3-1.7,1.3-2.7c0-1.3-0.6-2.2-1.7-2.7s-2.7-0.7-4.8-0.7h-4.8c-1.2,0-2.2,0-3-0.1s-1.6-0.2-2.4-0.4
			c-0.9,0.7-1.5,1.4-1.9,2.1c-0.4,0.7-0.6,1.5-0.6,2.3c0,1.5,0.8,2.7,2.5,3.5C130.6,127.4,132.9,127.8,135.7,127.8z M134.7,100.1
			c1.2,0,2.2-0.3,3.1-0.8c0.9-0.5,1.7-1.3,2.2-2.4c0.6-1,0.8-2.3,0.8-3.8c0-1.5-0.3-2.7-0.8-3.7c-0.6-1-1.3-1.8-2.2-2.3
			c-0.9-0.5-2-0.8-3.1-0.8c-1.1,0-2.1,0.3-3.1,0.8c-0.9,0.5-1.7,1.3-2.2,2.3c-0.5,1-0.8,2.2-0.8,3.7c0,1.5,0.3,2.7,0.8,3.8
			c0.5,1,1.3,1.8,2.2,2.4C132.6,99.8,133.6,100.1,134.7,100.1z"/>
		<path class="st3" d="M173.2,118.9c-3.3,0-6.3-0.8-9.2-2.3c-2.9-1.6-5.2-3.8-6.9-6.7c-1.8-2.9-2.6-6.4-2.6-10.5
			c0-4.1,0.9-7.6,2.6-10.5c1.8-2.9,4.1-5.1,6.9-6.7c2.9-1.6,5.9-2.3,9.2-2.3c2.5,0,4.8,0.4,7,1.3c2.2,0.9,4.2,2.2,6,3.8
			c1.8,1.7,3.2,3.7,4.2,6.1c1,2.4,1.5,5.2,1.5,8.3c0,4.1-0.9,7.6-2.7,10.5c-1.8,2.9-4.1,5.1-6.9,6.7
			C179.5,118.1,176.4,118.9,173.2,118.9z M173.2,110.9c1.8,0,3.3-0.5,4.5-1.4c1.2-1,2.2-2.3,2.8-4c0.6-1.7,0.9-3.8,0.9-6.1
			c0-2.4-0.3-4.4-0.9-6.1c-0.6-1.7-1.6-3.1-2.8-4c-1.2-1-2.7-1.4-4.5-1.4c-1.8,0-3.3,0.5-4.5,1.4c-1.2,1-2.2,2.3-2.8,4
			c-0.6,1.7-0.9,3.8-0.9,6.1c0,2.4,0.3,4.4,0.9,6.1c0.6,1.7,1.6,3.1,2.8,4C169.9,110.4,171.4,110.9,173.2,110.9z"/>
		<path class="st3" d="M213.3,118.9c-3.3,0-6.3-0.8-9.2-2.3c-2.9-1.6-5.2-3.8-6.9-6.7c-1.8-2.9-2.6-6.4-2.6-10.5
			c0-4.1,0.9-7.6,2.6-10.5c1.8-2.9,4.1-5.1,6.9-6.7c2.9-1.6,5.9-2.3,9.2-2.3c2.5,0,4.8,0.4,7,1.3c2.2,0.9,4.2,2.2,6,3.8
			c1.8,1.7,3.2,3.7,4.2,6.1c1,2.4,1.5,5.2,1.5,8.3c0,4.1-0.9,7.6-2.7,10.5c-1.8,2.9-4.1,5.1-6.9,6.7
			C219.6,118.1,216.6,118.9,213.3,118.9z M213.3,110.9c1.8,0,3.3-0.5,4.5-1.4c1.2-1,2.2-2.3,2.8-4c0.6-1.7,0.9-3.8,0.9-6.1
			c0-2.4-0.3-4.4-0.9-6.1c-0.6-1.7-1.6-3.1-2.8-4c-1.2-1-2.7-1.4-4.5-1.4c-1.8,0-3.3,0.5-4.5,1.4c-1.2,1-2.2,2.3-2.8,4
			c-0.6,1.7-0.9,3.8-0.9,6.1c0,2.4,0.3,4.4,0.9,6.1c0.6,1.7,1.6,3.1,2.8,4C210.1,110.4,211.6,110.9,213.3,110.9z"/>
		<path class="st3" d="M250.9,118.9c-3.3,0-6.1-0.8-8.5-2.3c-2.4-1.6-4.2-3.8-5.5-6.7c-1.3-2.9-2-6.4-2-10.5c0-4,0.8-7.5,2.3-10.4
			c1.6-2.9,3.6-5.2,6.1-6.8s5.2-2.4,8-2.4c2.2,0,4,0.4,5.5,1.1c1.5,0.7,3,1.7,4.4,3l-0.3-5.9V64.8h10.3v53.1h-8.4l-0.8-3.9h-0.3
			c-1.4,1.3-3.1,2.5-5,3.4C254.9,118.4,253,118.9,250.9,118.9z M253.6,110.8c1.4,0,2.7-0.3,3.9-0.9s2.3-1.6,3.5-3V90.6
			c-1.2-1-2.4-1.7-3.6-2.2c-1.2-0.4-2.5-0.6-3.7-0.6c-1.4,0-2.8,0.4-4,1.3c-1.2,0.9-2.2,2.1-3,3.8c-0.7,1.7-1.1,3.8-1.1,6.3
			c0,2.6,0.3,4.7,0.9,6.5c0.6,1.7,1.5,3,2.8,3.9C250.4,110.4,251.9,110.8,253.6,110.8z"/>
	</g>
	<path class="st4" d="M220.4,126.5c-3.3,5.3-14.1,9.1-26.8,9.1c-12.4,0-22.9-3.7-26.5-8.8"/>
</g>
<path class="st0" d="M229.5,228.6c0,1.5-0.4,2.9-1.1,4.2"/>
</svg>
