<?xml version="1.0" encoding="utf-8"?>
<!-- Generator: Adobe Illustrator 27.0.0, SVG Export Plug-In . SVG Version: 6.00 Build 0)  -->
<svg version="1.1" id="Layer_1" xmlns="http://www.w3.org/2000/svg" xmlns:xlink="http://www.w3.org/1999/xlink" x="0px" y="0px"
	 viewBox="0 0 500 500" style="enable-background:new 0 0 500 500;" xml:space="preserve">
<style type="text/css">
	.st0{fill:#FFFFFF;}
</style>
<g>
	<g>
		<path class="st0" d="M113.9,232.1c36.5,54,99.1,75.9,160.9,85.1c6.2,0.9,11.7,1,17.3-2.3c4.7-2.7,9.1-8.1,10.3-13.4
			c2.4-10.7-3.3-25.8-15.7-27.7c-14.7-2.2-29.3-4.8-43.7-8.6c-7.2-1.9-14.3-4-21.2-6.5c-3.4-1.2-7.2-2.2-10.4-3.9
			c4.5,2.5-0.7-0.3-1.4-0.7c-1.5-0.7-2.9-1.3-4.4-2c-5.8-2.8-11.5-5.9-17-9.3c-2.7-1.7-5.4-3.5-8.1-5.3c-1.3-0.9-2.6-1.9-3.9-2.8
			c-3.7-2.7,3.3,2.8-0.5-0.4c-4.7-4-9.3-8-13.5-12.5c-2.2-2.3-4.3-4.7-6.3-7.2c-0.5-0.6-1-1.2-1.5-1.9c1.7,2.2,2.1,2.7,1.1,1.4
			c-1.1-1.5-2.2-3-3.2-4.6c-6.6-9.7-20.1-15-30.8-8.1C112.3,207.6,106.8,221.7,113.9,232.1L113.9,232.1z"/>
	</g>
</g>
<g>
	<g>
		<path class="st0" d="M146.6,159.2c29,32.2,67.3,55.6,108.9,67.5c11.3,3.2,25-3.9,27.7-15.7c2.7-12-3.6-24.2-15.7-27.7
			c-4.5-1.3-8.9-2.7-13.3-4.2c-2.3-0.8-4.6-1.7-6.9-2.6c-0.8-0.3-2.2-1.2-3-1.2c2.6,1.1,3.1,1.3,1.6,0.7c-0.5-0.2-1-0.4-1.5-0.7
			c-8.7-3.9-17.2-8.4-25.3-13.5c-3.9-2.5-7.8-5.1-11.6-7.8c-0.9-0.6-1.8-1.3-2.7-1.9c-0.4-0.3-0.9-0.7-1.3-1c-1.3-1-0.9-0.7,1.3,1
			c0-0.1-4.7-3.8-5.1-4.1c-7.6-6.3-14.6-13.2-21.2-20.5c-7.9-8.8-23.9-8.6-31.8,0C138,136.7,138.2,149.8,146.6,159.2L146.6,159.2z"
			/>
	</g>
</g>
</svg>
