<svg width="985" height="118" viewBox="0 0 985 118" fill="none" xmlns="http://www.w3.org/2000/svg">
<path d="M0.249662 80.2522L52.2963 80.1772C52.6963 83.177 54.5712 85.5018 57.921 87.1517C61.2707 88.7516 65.8454 89.5516 71.6451 89.5516C77.4447 89.5516 81.7694 88.9016 84.6192 87.6017C87.519 86.2518 88.969 84.2519 88.969 81.6021C88.969 79.2522 87.719 77.3774 85.2192 75.9774C82.7194 74.5275 78.8696 73.4776 73.6699 72.8276L41.572 68.8529C28.2729 67.253 18.2485 63.6782 11.4989 58.1286C4.79937 52.579 1.44959 45.1544 1.44959 35.855C1.44959 23.4558 6.52426 14.4064 16.6736 8.70677C26.8729 3.00714 43.0969 0.157324 65.3455 0.157324C88.444 0.157324 105.618 3.00714 116.867 8.70677C128.116 14.4064 134.191 23.2808 135.091 35.3301H85.1442C84.5942 31.8303 82.4944 29.2055 78.8446 27.4556C75.1948 25.6557 70.0702 24.7557 63.4706 24.7557C58.6709 24.7557 54.8961 25.4307 52.1463 26.7806C49.3965 28.0805 48.0216 29.8554 48.0216 32.1053C48.0216 34.2051 49.0715 35.805 51.1714 36.905C53.3212 38.0049 57.746 39.0298 64.4455 39.9798L103.593 45.5294C115.842 47.2793 124.992 50.8541 131.041 56.2537C137.091 61.6034 140.116 68.8279 140.116 77.9273C140.116 91.5264 134.066 101.501 121.967 107.85C109.868 114.2 90.7938 117.375 64.7455 117.375C44.0468 117.375 28.1479 114.175 17.0486 107.775C5.99929 101.376 0.399653 92.2014 0.249662 80.2522ZM200.562 3.08214V57.3036C200.562 68.4529 202.237 76.2024 205.586 80.5522C208.986 84.8519 214.836 87.0017 223.135 87.0017C231.435 87.0017 237.234 84.8519 240.534 80.5522C243.884 76.2524 245.559 68.5029 245.559 57.3036V3.08214H288.606V61.3534C288.606 80.6021 283.356 94.7012 272.857 103.651C262.408 112.6 245.834 117.075 223.135 117.075C200.587 117.075 184.013 112.575 173.414 103.576C162.864 94.5762 157.59 80.5022 157.59 61.3534V3.08214H200.562ZM355.952 86.3268H386.4C393.399 86.3268 397.924 85.6768 399.974 84.3769C402.074 83.077 403.124 80.7271 403.124 77.3274C403.124 73.8276 402.049 71.4277 399.899 70.1278C397.749 68.7779 393.249 68.103 386.4 68.103H355.952V86.3268ZM355.952 29.0305V44.7045H384.825C391.075 44.7045 395.124 44.1545 396.974 43.0546C398.824 41.9046 399.749 39.8548 399.749 36.905C399.749 33.9052 398.899 31.8553 397.199 30.7554C395.499 29.6054 391.374 29.0305 384.825 29.0305H355.952ZM402.224 3.08214C417.723 3.08214 428.672 5.232 435.072 9.53172C441.521 13.7814 444.746 20.856 444.746 30.7554C444.746 36.205 443.496 40.9797 440.996 45.0794C438.496 49.1792 434.822 52.504 429.972 55.0538C436.372 57.1037 441.196 60.4534 444.446 65.1031C447.696 69.7028 449.321 75.4525 449.321 82.352C449.321 92.9014 445.871 100.826 438.971 106.126C432.072 111.375 421.698 114 407.848 114H312.98V3.08214H402.224ZM534.14 26.9306H510.592V50.8541H534.14C541.14 50.8541 545.965 49.9791 548.614 48.2292C551.314 46.4293 552.664 43.3295 552.664 38.9298C552.664 34.4801 551.314 31.3803 548.614 29.6304C545.965 27.8305 541.14 26.9306 534.14 26.9306ZM467.62 114V3.08214H550.564C566.263 3.08214 578.362 6.23193 586.862 12.5315C595.411 18.7811 599.686 27.6306 599.686 39.0798C599.686 50.4791 595.411 59.3285 586.862 65.6281C578.362 71.8777 566.263 75.0025 550.564 75.0025H510.592V114H467.62ZM614.31 114V3.08214H657.282V114H614.31ZM773.975 49.6541C773.275 42.8046 770.85 37.5799 766.7 33.9801C762.551 30.3804 756.876 28.5805 749.676 28.5805C740.477 28.5805 733.428 31.1553 728.528 36.305C723.678 41.4547 721.253 48.8792 721.253 58.5786C721.253 68.2279 723.678 75.6025 728.528 80.7021C733.428 85.8018 740.477 88.3517 749.676 88.3517C756.326 88.3517 761.676 86.8517 765.725 83.8519C769.825 80.8021 772.525 76.3024 773.825 70.3528H823.397C821.147 85.7018 813.772 97.3011 801.273 105.151C788.824 113 771.625 116.925 749.676 116.925C725.028 116.925 706.429 112.025 693.88 102.226C681.331 92.3764 675.056 77.8273 675.056 58.5786C675.056 39.2798 681.331 24.7307 693.88 14.9314C706.429 5.08201 725.028 0.157324 749.676 0.157324C772.675 0.157324 790.474 4.43205 803.073 12.9815C815.672 21.481 822.347 33.7052 823.097 49.6541H773.975ZM839.446 114V3.08214H882.418V41.4797L921.94 3.08214H979.987L933.715 43.2046L984.561 114H931.09L901.167 69.0029L882.418 84.2269V114H839.446Z" fill="white"/>
</svg>
