<?xml version="1.0" encoding="utf-8"?>
<!-- Generator: Adobe Illustrator 27.0.0, SVG Export Plug-In . SVG Version: 6.00 Build 0)  -->
<svg version="1.1" id="Layer_1" xmlns="http://www.w3.org/2000/svg" xmlns:xlink="http://www.w3.org/1999/xlink" x="0px" y="0px"
	 viewBox="0 0 414.5 90" style="enable-background:new 0 0 414.5 90;" xml:space="preserve">
<style type="text/css">
	.st0{fill:#FFBC15;}
	.st1{fill:#009132;}
	.st2{fill:#FFFFFF;}
</style>
<g>
	<path class="st0" d="M2.8,52.1h18.4c0.5,2.1,1.4,3.7,2.8,4.6c1.3,0.9,3.3,1.4,6,1.4c2.2,0,4-0.4,5.2-1.1c1.3-0.8,1.9-1.8,1.9-3.1
		c0-2.1-2.7-3.9-8-5.2c-1.1-0.3-1.9-0.5-2.4-0.6c-4.4-1.1-7.8-2.1-10.4-3.1c-2.6-0.9-4.5-1.8-5.6-2.6c-2.3-1.6-4-3.6-5.1-5.9
		c-1.1-2.3-1.7-4.9-1.7-7.8c0-5.9,2.2-10.4,6.6-13.8c4.4-3.3,10.5-5,18.2-5c7.6,0,13.6,1.6,17.9,4.8c4.4,3.2,6.8,7.8,7.4,13.7h-18
		c-0.3-1.7-1.1-3-2.3-3.9c-1.2-0.9-3-1.3-5.3-1.3c-2,0-3.5,0.3-4.5,1c-1,0.7-1.5,1.7-1.5,3c0,2,2.6,3.6,7.8,4.9
		c0.5,0.1,0.8,0.2,1,0.3c0.7,0.2,1.9,0.5,3.4,0.8c6.9,1.7,11.4,3.3,13.5,4.7c2.6,1.7,4.5,3.7,5.7,5.9c1.2,2.2,1.8,4.8,1.8,7.9
		c0,6.5-2.3,11.5-6.8,15c-4.6,3.5-11.1,5.2-19.6,5.2c-7.8,0-14-1.8-18.6-5.2C5.9,63.4,3.4,58.5,2.8,52.1z"/>
	<path class="st0" d="M59.1,70.5V27h15.8v6.4c1.9-2.6,4.1-4.5,6.5-5.7c2.4-1.2,5.2-1.8,8.3-1.8c2.9,0,5.3,0.6,7.4,1.8
		c2.1,1.2,3.9,3.1,5.6,5.7c2.1-2.6,4.4-4.5,6.9-5.8c2.5-1.2,5.3-1.8,8.5-1.8c5.1,0,9.1,1.3,11.9,4c2.8,2.6,4.2,6.4,4.2,11.1v29.7
		h-17.1V47.2c0-2.7-0.5-4.7-1.4-5.9c-0.9-1.2-2.4-1.8-4.5-1.8c-2.1,0-3.7,0.6-4.6,1.9c-1,1.3-1.5,3.3-1.5,6v23.2h-17V47.8
		c0-3-0.5-5.1-1.4-6.4c-0.9-1.3-2.5-1.9-4.7-1.9c-1.9,0-3.4,0.7-4.4,2c-1,1.3-1.5,3.2-1.5,5.7v23.4H59.1z"/>
	<path class="st0" d="M139.4,22.5V10.1h17.5v12.5H139.4z M139.4,70.5V27h17.5v43.6H139.4z"/>
	<path class="st0" d="M163.1,70.5v-59h17.5v59H163.1z"/>
	<path class="st0" d="M215.8,57.6h16.6c-1.2,4.8-3.8,8.4-7.9,10.8c-4.1,2.4-9.5,3.7-16.1,3.7c-7.5,0-13.4-2.1-17.8-6.2
		c-4.4-4.2-6.6-9.7-6.6-16.8c0-7.3,2.2-13.1,6.7-17.3c4.5-4.2,10.6-6.4,18.3-6.4c7.7,0,13.8,2.3,18.2,6.9c4.4,4.6,6.6,11,6.6,19.2v1
		l-32.5,0c0.1,2.8,0.8,4.9,2.2,6.4c1.4,1.5,3.3,2.3,5.8,2.3c1.7,0,3.1-0.3,4.2-0.9C214.7,59.7,215.4,58.8,215.8,57.6z M201.3,43.9
		h15.4c-0.2-2.7-0.9-4.7-2.2-6.1c-1.3-1.3-3.2-2-5.7-2c-2.3,0-4.1,0.7-5.4,2.1C202.1,39.3,201.4,41.3,201.3,43.9z"/>
	<path class="st1" d="M257.9,52.1h18.4c0.5,2.1,1.4,3.7,2.8,4.6c1.3,0.9,3.3,1.4,6,1.4c2.2,0,4-0.4,5.2-1.1c1.3-0.8,1.9-1.8,1.9-3.1
		c0-2.1-2.7-3.9-8-5.2c-1.1-0.3-1.9-0.5-2.4-0.6c-4.4-1.1-7.8-2.1-10.4-3.1c-2.6-0.9-4.5-1.8-5.6-2.6c-2.3-1.6-4-3.6-5.1-5.9
		c-1.1-2.3-1.7-4.9-1.7-7.8c0-5.9,2.2-10.4,6.6-13.8c4.4-3.3,10.5-5,18.2-5c7.6,0,13.6,1.6,17.9,4.8c4.4,3.2,6.8,7.8,7.4,13.7h-18
		c-0.3-1.7-1.1-3-2.3-3.9c-1.2-0.9-3-1.3-5.3-1.3c-2,0-3.5,0.3-4.5,1c-1,0.7-1.5,1.7-1.5,3c0,2,2.6,3.6,7.8,4.9
		c0.5,0.1,0.8,0.2,1,0.3c0.7,0.2,1.9,0.5,3.4,0.8c6.9,1.7,11.4,3.3,13.5,4.7c2.6,1.7,4.5,3.7,5.7,5.9s1.8,4.8,1.8,7.9
		c0,6.5-2.3,11.5-6.8,15c-4.6,3.5-11.1,5.2-19.6,5.2c-7.8,0-14-1.8-18.6-5.2C261,63.4,258.4,58.5,257.9,52.1z"/>
	<path class="st1" d="M360.9,27v43.6H345v-6.4c-2,2.6-4.3,4.5-6.8,5.7c-2.5,1.2-5.3,1.9-8.5,1.9c-2.6,0-5-0.4-7.1-1.3
		s-3.8-2.2-5.3-3.9c-1.3-1.5-2.2-3.4-2.7-5.7c-0.5-2.2-0.8-6-0.8-11.2V27h17.3v22.5c0,3.3,0.4,5.6,1.3,6.9c0.9,1.3,2.4,1.9,4.6,1.9
		s3.8-0.7,4.9-2.2c1.1-1.5,1.6-3.7,1.6-6.7V27H360.9z"/>
	<path class="st1" d="M366.1,70.5v-59H383v20c1.7-1.9,3.6-3.4,5.7-4.3c2.1-1,4.3-1.5,6.8-1.5c5.7,0,10.3,2.1,13.8,6.3
		s5.2,9.8,5.2,16.9c0,7-1.7,12.6-5.2,16.8c-3.4,4.2-8,6.4-13.6,6.4c-2.9,0-5.6-0.6-7.9-1.7c-2.4-1.1-4.5-2.9-6.3-5.2v5.3H366.1z
		 M382.9,49.2c0,3.2,0.6,5.6,1.9,7.4c1.3,1.8,3,2.7,5.2,2.7c2.2,0,3.9-0.9,5.2-2.6s1.9-4.2,1.9-7.4c0-3.4-0.6-6-1.7-7.6
		c-1.1-1.6-2.9-2.5-5.3-2.5c-2.4,0-4.2,0.8-5.4,2.5S382.9,45.8,382.9,49.2z"/>
</g>
</svg>
